<svg xmlns="http://www.w3.org/2000/svg" viewBox="0 0 64 64" role="img" aria-label="LyricMind favicon">
  <rect width="64" height="64" rx="8" fill="#101724"/>
  <path d="M31.2 8.4c-4.8 0-8.4 3.2-8.4 7.7 0 2.9 1.4 5 4.3 6.8-4.8 3.7-7.4 8.2-7.4 13.4 0 6.9 4.9 11.7 12 11.7 5.8 0 10.4-3.4 10.4-8.5 0-3.9-2.8-6.6-6.7-6.6-3.3 0-5.8 2.2-5.8 5.3 0 2.7 1.8 4.6 4.4 5.1-1 .6-2.2.9-3.6.9-4.2 0-7.2-3.1-7.2-7.9 0-5.2 3.4-9.3 10.2-13 5.6-3 7.6-6.2 7.6-10.7 0-5.3-4.3-9.2-9.8-9.2zm0 3.5c3.3 0 5.8 2.4 5.8 5.5 0 2.5-1.1 4.3-4.7 6.2-3.8-2-5.1-3.9-5.1-6.6 0-3 1.7-5.1 4-5.1z" fill="#f2c14e"/>
  <circle cx="43.8" cy="49.5" r="5.1" fill="#f2c14e"/>
</svg>